<?xml version="1.0" standalone="no"?>
<!DOCTYPE svg PUBLIC "-//W3C//DTD SVG 20010904//EN"
 "http://www.w3.org/TR/2001/REC-SVG-20010904/DTD/svg10.dtd">
<svg version="1.0" xmlns="http://www.w3.org/2000/svg"
 width="400px" height="400px" viewBox="0 0 412.000000 418.000000"
 preserveAspectRatio="xMidYMid meet">

<g transform="translate(0.000000,418.000000) scale(0.100000,-0.100000)"
fill="#000000" stroke="none">
<path d="M1910 3894 c-293 -33 -474 -84 -689 -194 -341 -175 -606 -440 -781
-781 -136 -264 -193 -505 -194 -814 -1 -375 95 -697 303 -1011 198 -299 510
-545 861 -679 328 -125 733 -146 1092 -55 400 102 799 387 1029 734 208 314
304 636 303 1011 -1 309 -58 550 -194 814 -140 272 -351 511 -594 672 -298
197 -600 293 -956 303 -80 2 -161 2 -180 0z m953 -1232 l77 -77 -555 -555
-555 -555 -317 317 -318 318 80 80 80 80 237 -237 238 -238 473 473 c259 259
474 472 477 472 3 0 40 -35 83 -78z"/>
</g>
</svg>
